<mxfile host="Electron" modified="2023-11-23T18:34:33.083Z" agent="Mozilla/5.0 (Windows NT 10.0; Win64; x64) AppleWebKit/537.36 (KHTML, like Gecko) draw.io/22.1.2 Chrome/114.0.5735.289 Electron/25.9.4 Safari/537.36" etag="gMpA-94Gk-bux9N7CVe4" version="22.1.2" type="device">
  <diagram name="PÃ¡gina-1" id="8AGlXTyf6qhKJLY7l6IQ">
    <mxGraphModel dx="830" dy="498" grid="1" gridSize="5" guides="1" tooltips="1" connect="1" arrows="1" fold="1" page="1" pageScale="1" pageWidth="827" pageHeight="1169" math="0" shadow="0">
      <root>
        <mxCell id="0" />
        <mxCell id="1" parent="0" />
        <mxCell id="HCZACGInt_wmzSHM1FGN-8" style="edgeStyle=orthogonalEdgeStyle;rounded=0;orthogonalLoop=1;jettySize=auto;html=1;exitX=0.5;exitY=1;exitDx=0;exitDy=0;entryX=0.5;entryY=0;entryDx=0;entryDy=0;" parent="1" source="HCZACGInt_wmzSHM1FGN-1" target="HCZACGInt_wmzSHM1FGN-4" edge="1">
          <mxGeometry relative="1" as="geometry" />
        </mxCell>
        <mxCell id="HCZACGInt_wmzSHM1FGN-1" value="" style="whiteSpace=wrap;html=1;aspect=fixed;" parent="1" vertex="1">
          <mxGeometry x="100" y="160" width="40" height="40" as="geometry" />
        </mxCell>
        <mxCell id="HCZACGInt_wmzSHM1FGN-2" value="0" style="whiteSpace=wrap;html=1;aspect=fixed;fontSize=20;" parent="1" vertex="1">
          <mxGeometry x="104.5" y="164.5" width="31" height="31" as="geometry" />
        </mxCell>
        <mxCell id="HCZACGInt_wmzSHM1FGN-9" style="edgeStyle=orthogonalEdgeStyle;rounded=0;orthogonalLoop=1;jettySize=auto;html=1;exitX=0.5;exitY=1;exitDx=0;exitDy=0;entryX=0.5;entryY=0;entryDx=0;entryDy=0;" parent="1" source="HCZACGInt_wmzSHM1FGN-4" target="HCZACGInt_wmzSHM1FGN-5" edge="1">
          <mxGeometry relative="1" as="geometry" />
        </mxCell>
        <mxCell id="HCZACGInt_wmzSHM1FGN-4" value="1" style="whiteSpace=wrap;html=1;aspect=fixed;fontSize=20;" parent="1" vertex="1">
          <mxGeometry x="100" y="240" width="40" height="40" as="geometry" />
        </mxCell>
        <mxCell id="HCZACGInt_wmzSHM1FGN-5" value="2" style="whiteSpace=wrap;html=1;aspect=fixed;fontSize=20;horizontal=1;" parent="1" vertex="1">
          <mxGeometry x="100" y="320" width="40" height="40" as="geometry" />
        </mxCell>
        <mxCell id="HCZACGInt_wmzSHM1FGN-23" style="edgeStyle=orthogonalEdgeStyle;rounded=0;orthogonalLoop=1;jettySize=auto;html=1;exitX=0.5;exitY=1;exitDx=0;exitDy=0;entryX=0.5;entryY=0;entryDx=0;entryDy=0;" parent="1" source="HCZACGInt_wmzSHM1FGN-6" target="HCZACGInt_wmzSHM1FGN-20" edge="1">
          <mxGeometry relative="1" as="geometry" />
        </mxCell>
        <mxCell id="HCZACGInt_wmzSHM1FGN-6" value="&lt;font style=&quot;font-size: 20px;&quot;&gt;3&lt;/font&gt;" style="whiteSpace=wrap;html=1;aspect=fixed;" parent="1" vertex="1">
          <mxGeometry x="100" y="400" width="40" height="40" as="geometry" />
        </mxCell>
        <mxCell id="HCZACGInt_wmzSHM1FGN-10" style="edgeStyle=orthogonalEdgeStyle;rounded=0;orthogonalLoop=1;jettySize=auto;html=1;exitX=0.5;exitY=1;exitDx=0;exitDy=0;entryX=0.492;entryY=-0.05;entryDx=0;entryDy=0;entryPerimeter=0;" parent="1" source="HCZACGInt_wmzSHM1FGN-5" target="HCZACGInt_wmzSHM1FGN-6" edge="1">
          <mxGeometry relative="1" as="geometry" />
        </mxCell>
        <mxCell id="HCZACGInt_wmzSHM1FGN-12" value="&lt;font style=&quot;font-size: 20px;&quot;&gt;V1&lt;/font&gt;" style="rounded=0;whiteSpace=wrap;html=1;" parent="1" vertex="1">
          <mxGeometry x="160" y="240" width="40" height="40" as="geometry" />
        </mxCell>
        <mxCell id="HCZACGInt_wmzSHM1FGN-14" value="" style="endArrow=none;html=1;rounded=0;" parent="1" edge="1">
          <mxGeometry width="50" height="50" relative="1" as="geometry">
            <mxPoint x="115" y="220" as="sourcePoint" />
            <mxPoint x="125" y="220" as="targetPoint" />
          </mxGeometry>
        </mxCell>
        <mxCell id="HCZACGInt_wmzSHM1FGN-15" value="" style="endArrow=none;html=1;rounded=0;" parent="1" edge="1">
          <mxGeometry width="50" height="50" relative="1" as="geometry">
            <mxPoint x="115" y="300" as="sourcePoint" />
            <mxPoint x="125" y="300" as="targetPoint" />
          </mxGeometry>
        </mxCell>
        <mxCell id="HCZACGInt_wmzSHM1FGN-16" value="" style="endArrow=none;html=1;rounded=0;" parent="1" edge="1">
          <mxGeometry width="50" height="50" relative="1" as="geometry">
            <mxPoint x="115" y="380" as="sourcePoint" />
            <mxPoint x="125" y="380" as="targetPoint" />
          </mxGeometry>
        </mxCell>
        <mxCell id="HCZACGInt_wmzSHM1FGN-20" value="1" style="whiteSpace=wrap;html=1;aspect=fixed;fontSize=20;" parent="1" vertex="1">
          <mxGeometry x="100" y="480" width="40" height="40" as="geometry" />
        </mxCell>
        <mxCell id="HCZACGInt_wmzSHM1FGN-21" value="" style="endArrow=none;html=1;rounded=0;" parent="1" edge="1">
          <mxGeometry width="50" height="50" relative="1" as="geometry">
            <mxPoint x="115" y="460" as="sourcePoint" />
            <mxPoint x="125" y="460" as="targetPoint" />
          </mxGeometry>
        </mxCell>
        <mxCell id="HCZACGInt_wmzSHM1FGN-27" value="" style="endArrow=none;html=1;rounded=0;exitX=1;exitY=0.5;exitDx=0;exitDy=0;entryX=0;entryY=0.5;entryDx=0;entryDy=0;" parent="1" source="HCZACGInt_wmzSHM1FGN-4" target="HCZACGInt_wmzSHM1FGN-12" edge="1">
          <mxGeometry width="50" height="50" relative="1" as="geometry">
            <mxPoint x="70" y="370" as="sourcePoint" />
            <mxPoint x="120" y="320" as="targetPoint" />
          </mxGeometry>
        </mxCell>
        <mxCell id="HCZACGInt_wmzSHM1FGN-33" value="&lt;font style=&quot;font-size: 20px;&quot;&gt;V2&lt;br&gt;&lt;/font&gt;" style="rounded=0;whiteSpace=wrap;html=1;" parent="1" vertex="1">
          <mxGeometry x="160" y="400" width="40" height="40" as="geometry" />
        </mxCell>
        <mxCell id="HCZACGInt_wmzSHM1FGN-35" value="" style="endArrow=none;html=1;rounded=0;exitX=1;exitY=0.5;exitDx=0;exitDy=0;entryX=0;entryY=0.5;entryDx=0;entryDy=0;" parent="1" edge="1">
          <mxGeometry width="50" height="50" relative="1" as="geometry">
            <mxPoint x="140" y="419.86" as="sourcePoint" />
            <mxPoint x="160" y="419.86" as="targetPoint" />
          </mxGeometry>
        </mxCell>
        <mxCell id="HCZACGInt_wmzSHM1FGN-36" style="edgeStyle=orthogonalEdgeStyle;rounded=0;orthogonalLoop=1;jettySize=auto;html=1;exitX=0.5;exitY=1;exitDx=0;exitDy=0;entryX=0.5;entryY=0;entryDx=0;entryDy=0;" parent="1" source="HCZACGInt_wmzSHM1FGN-37" target="HCZACGInt_wmzSHM1FGN-40" edge="1">
          <mxGeometry relative="1" as="geometry" />
        </mxCell>
        <mxCell id="HCZACGInt_wmzSHM1FGN-37" value="" style="whiteSpace=wrap;html=1;aspect=fixed;" parent="1" vertex="1">
          <mxGeometry x="490" y="160" width="40" height="40" as="geometry" />
        </mxCell>
        <mxCell id="HCZACGInt_wmzSHM1FGN-38" value="20" style="whiteSpace=wrap;html=1;aspect=fixed;fontSize=20;" parent="1" vertex="1">
          <mxGeometry x="494.5" y="164.5" width="31" height="31" as="geometry" />
        </mxCell>
        <mxCell id="HCZACGInt_wmzSHM1FGN-39" style="edgeStyle=orthogonalEdgeStyle;rounded=0;orthogonalLoop=1;jettySize=auto;html=1;exitX=0.5;exitY=1;exitDx=0;exitDy=0;entryX=0.5;entryY=0;entryDx=0;entryDy=0;" parent="1" source="HCZACGInt_wmzSHM1FGN-40" target="HCZACGInt_wmzSHM1FGN-41" edge="1">
          <mxGeometry relative="1" as="geometry" />
        </mxCell>
        <mxCell id="HCZACGInt_wmzSHM1FGN-40" value="21" style="whiteSpace=wrap;html=1;aspect=fixed;fontSize=20;" parent="1" vertex="1">
          <mxGeometry x="490" y="240" width="40" height="40" as="geometry" />
        </mxCell>
        <mxCell id="HCZACGInt_wmzSHM1FGN-49" style="edgeStyle=orthogonalEdgeStyle;rounded=0;orthogonalLoop=1;jettySize=auto;html=1;exitX=0.5;exitY=1;exitDx=0;exitDy=0;entryX=0.5;entryY=0;entryDx=0;entryDy=0;" parent="1" source="HCZACGInt_wmzSHM1FGN-41" target="HCZACGInt_wmzSHM1FGN-46" edge="1">
          <mxGeometry relative="1" as="geometry" />
        </mxCell>
        <mxCell id="HCZACGInt_wmzSHM1FGN-41" value="22" style="whiteSpace=wrap;html=1;aspect=fixed;fontSize=20;horizontal=1;" parent="1" vertex="1">
          <mxGeometry x="490" y="320" width="40" height="40" as="geometry" />
        </mxCell>
        <mxCell id="HCZACGInt_wmzSHM1FGN-42" value="" style="endArrow=none;html=1;rounded=0;" parent="1" edge="1">
          <mxGeometry width="50" height="50" relative="1" as="geometry">
            <mxPoint x="505" y="220" as="sourcePoint" />
            <mxPoint x="515" y="220" as="targetPoint" />
          </mxGeometry>
        </mxCell>
        <mxCell id="HCZACGInt_wmzSHM1FGN-43" value="" style="endArrow=none;html=1;rounded=0;" parent="1" edge="1">
          <mxGeometry width="50" height="50" relative="1" as="geometry">
            <mxPoint x="505" y="300" as="sourcePoint" />
            <mxPoint x="515" y="300" as="targetPoint" />
          </mxGeometry>
        </mxCell>
        <mxCell id="HCZACGInt_wmzSHM1FGN-44" value="= 1" style="text;html=1;align=center;verticalAlign=middle;resizable=0;points=[];autosize=1;strokeColor=none;fillColor=none;" parent="1" vertex="1">
          <mxGeometry x="510" y="205" width="40" height="30" as="geometry" />
        </mxCell>
        <mxCell id="HCZACGInt_wmzSHM1FGN-45" value="!PP" style="text;html=1;align=center;verticalAlign=middle;resizable=0;points=[];autosize=1;strokeColor=none;fillColor=none;" parent="1" vertex="1">
          <mxGeometry x="510" y="285" width="40" height="30" as="geometry" />
        </mxCell>
        <mxCell id="HCZACGInt_wmzSHM1FGN-46" value="20" style="whiteSpace=wrap;html=1;aspect=fixed;fontSize=20;horizontal=1;" parent="1" vertex="1">
          <mxGeometry x="490" y="400" width="40" height="40" as="geometry" />
        </mxCell>
        <mxCell id="HCZACGInt_wmzSHM1FGN-47" value="" style="endArrow=none;html=1;rounded=0;" parent="1" edge="1">
          <mxGeometry width="50" height="50" relative="1" as="geometry">
            <mxPoint x="505" y="380" as="sourcePoint" />
            <mxPoint x="515" y="380" as="targetPoint" />
          </mxGeometry>
        </mxCell>
        <mxCell id="HCZACGInt_wmzSHM1FGN-48" value="PM" style="text;html=1;align=center;verticalAlign=middle;resizable=0;points=[];autosize=1;strokeColor=none;fillColor=none;" parent="1" vertex="1">
          <mxGeometry x="510" y="365" width="40" height="30" as="geometry" />
        </mxCell>
        <mxCell id="cw-4n0ESMkhcPqiXAh8_-3" value="PM * Et10" style="text;html=1;align=center;verticalAlign=middle;resizable=0;points=[];autosize=1;strokeColor=none;fillColor=none;" vertex="1" parent="1">
          <mxGeometry x="120" y="205" width="75" height="30" as="geometry" />
        </mxCell>
        <mxCell id="cw-4n0ESMkhcPqiXAh8_-4" value="25mm" style="text;html=1;align=center;verticalAlign=middle;resizable=0;points=[];autosize=1;strokeColor=none;fillColor=none;" vertex="1" parent="1">
          <mxGeometry x="120" y="285" width="55" height="30" as="geometry" />
        </mxCell>
        <mxCell id="cw-4n0ESMkhcPqiXAh8_-5" value="PR" style="text;html=1;align=center;verticalAlign=middle;resizable=0;points=[];autosize=1;strokeColor=none;fillColor=none;" vertex="1" parent="1">
          <mxGeometry x="120" y="365" width="40" height="30" as="geometry" />
        </mxCell>
        <mxCell id="cw-4n0ESMkhcPqiXAh8_-6" value="B1" style="text;html=1;align=center;verticalAlign=middle;resizable=0;points=[];autosize=1;strokeColor=none;fillColor=none;" vertex="1" parent="1">
          <mxGeometry x="122.5" y="445" width="35" height="30" as="geometry" />
        </mxCell>
        <mxCell id="cw-4n0ESMkhcPqiXAh8_-7" value="&lt;font style=&quot;font-size: 20px;&quot;&gt;Main&lt;/font&gt;" style="text;html=1;align=center;verticalAlign=middle;resizable=0;points=[];autosize=1;strokeColor=none;fillColor=none;" vertex="1" parent="1">
          <mxGeometry x="87.5" y="110" width="65" height="40" as="geometry" />
        </mxCell>
        <mxCell id="cw-4n0ESMkhcPqiXAh8_-8" value="&lt;font style=&quot;font-size: 20px;&quot;&gt;Reset&lt;br&gt;&lt;/font&gt;" style="text;html=1;align=center;verticalAlign=middle;resizable=0;points=[];autosize=1;strokeColor=none;fillColor=none;" vertex="1" parent="1">
          <mxGeometry x="265" y="110" width="75" height="40" as="geometry" />
        </mxCell>
        <mxCell id="cw-4n0ESMkhcPqiXAh8_-9" value="&lt;font style=&quot;font-size: 20px;&quot;&gt;Paro&lt;br&gt;&lt;/font&gt;" style="text;html=1;align=center;verticalAlign=middle;resizable=0;points=[];autosize=1;strokeColor=none;fillColor=none;" vertex="1" parent="1">
          <mxGeometry x="475" y="110" width="65" height="40" as="geometry" />
        </mxCell>
        <mxCell id="cw-4n0ESMkhcPqiXAh8_-10" value="&lt;font style=&quot;font-size: 20px;&quot;&gt;Goto Et0&lt;/font&gt;" style="rounded=0;whiteSpace=wrap;html=1;" vertex="1" parent="1">
          <mxGeometry x="550" y="320" width="100" height="40" as="geometry" />
        </mxCell>
        <mxCell id="cw-4n0ESMkhcPqiXAh8_-11" value="" style="endArrow=none;html=1;rounded=0;exitX=1;exitY=0.5;exitDx=0;exitDy=0;entryX=0;entryY=0.5;entryDx=0;entryDy=0;" edge="1" parent="1" target="cw-4n0ESMkhcPqiXAh8_-10">
          <mxGeometry width="50" height="50" relative="1" as="geometry">
            <mxPoint x="530" y="340" as="sourcePoint" />
            <mxPoint x="510" y="400" as="targetPoint" />
          </mxGeometry>
        </mxCell>
        <mxCell id="cw-4n0ESMkhcPqiXAh8_-28" style="edgeStyle=orthogonalEdgeStyle;rounded=0;orthogonalLoop=1;jettySize=auto;html=1;exitX=0.5;exitY=1;exitDx=0;exitDy=0;entryX=0.5;entryY=0;entryDx=0;entryDy=0;" edge="1" parent="1" source="cw-4n0ESMkhcPqiXAh8_-29" target="cw-4n0ESMkhcPqiXAh8_-32">
          <mxGeometry relative="1" as="geometry" />
        </mxCell>
        <mxCell id="cw-4n0ESMkhcPqiXAh8_-29" value="" style="whiteSpace=wrap;html=1;aspect=fixed;" vertex="1" parent="1">
          <mxGeometry x="285" y="160" width="40" height="40" as="geometry" />
        </mxCell>
        <mxCell id="cw-4n0ESMkhcPqiXAh8_-30" value="10" style="whiteSpace=wrap;html=1;aspect=fixed;fontSize=20;" vertex="1" parent="1">
          <mxGeometry x="289.5" y="164.5" width="31" height="31" as="geometry" />
        </mxCell>
        <mxCell id="cw-4n0ESMkhcPqiXAh8_-31" style="edgeStyle=orthogonalEdgeStyle;rounded=0;orthogonalLoop=1;jettySize=auto;html=1;exitX=0.5;exitY=1;exitDx=0;exitDy=0;entryX=0.5;entryY=0;entryDx=0;entryDy=0;" edge="1" parent="1" source="cw-4n0ESMkhcPqiXAh8_-32" target="cw-4n0ESMkhcPqiXAh8_-34">
          <mxGeometry relative="1" as="geometry" />
        </mxCell>
        <mxCell id="cw-4n0ESMkhcPqiXAh8_-32" value="11" style="whiteSpace=wrap;html=1;aspect=fixed;fontSize=20;" vertex="1" parent="1">
          <mxGeometry x="285" y="240" width="40" height="40" as="geometry" />
        </mxCell>
        <mxCell id="cw-4n0ESMkhcPqiXAh8_-33" style="edgeStyle=orthogonalEdgeStyle;rounded=0;orthogonalLoop=1;jettySize=auto;html=1;exitX=0.5;exitY=1;exitDx=0;exitDy=0;entryX=0.5;entryY=0;entryDx=0;entryDy=0;" edge="1" parent="1" source="cw-4n0ESMkhcPqiXAh8_-34" target="cw-4n0ESMkhcPqiXAh8_-39">
          <mxGeometry relative="1" as="geometry" />
        </mxCell>
        <mxCell id="cw-4n0ESMkhcPqiXAh8_-34" value="12" style="whiteSpace=wrap;html=1;aspect=fixed;fontSize=20;horizontal=1;" vertex="1" parent="1">
          <mxGeometry x="285" y="320" width="40" height="40" as="geometry" />
        </mxCell>
        <mxCell id="cw-4n0ESMkhcPqiXAh8_-35" value="" style="endArrow=none;html=1;rounded=0;" edge="1" parent="1">
          <mxGeometry width="50" height="50" relative="1" as="geometry">
            <mxPoint x="300" y="220" as="sourcePoint" />
            <mxPoint x="310" y="220" as="targetPoint" />
          </mxGeometry>
        </mxCell>
        <mxCell id="cw-4n0ESMkhcPqiXAh8_-36" value="" style="endArrow=none;html=1;rounded=0;" edge="1" parent="1">
          <mxGeometry width="50" height="50" relative="1" as="geometry">
            <mxPoint x="300" y="300" as="sourcePoint" />
            <mxPoint x="310" y="300" as="targetPoint" />
          </mxGeometry>
        </mxCell>
        <mxCell id="cw-4n0ESMkhcPqiXAh8_-37" value="Et0 * B1" style="text;html=1;align=center;verticalAlign=middle;resizable=0;points=[];autosize=1;strokeColor=none;fillColor=none;" vertex="1" parent="1">
          <mxGeometry x="305" y="205" width="65" height="30" as="geometry" />
        </mxCell>
        <mxCell id="cw-4n0ESMkhcPqiXAh8_-38" value="PR" style="text;html=1;align=center;verticalAlign=middle;resizable=0;points=[];autosize=1;strokeColor=none;fillColor=none;" vertex="1" parent="1">
          <mxGeometry x="305" y="285" width="40" height="30" as="geometry" />
        </mxCell>
        <mxCell id="cw-4n0ESMkhcPqiXAh8_-39" value="10" style="whiteSpace=wrap;html=1;aspect=fixed;fontSize=20;horizontal=1;" vertex="1" parent="1">
          <mxGeometry x="285" y="400" width="40" height="40" as="geometry" />
        </mxCell>
        <mxCell id="cw-4n0ESMkhcPqiXAh8_-40" value="" style="endArrow=none;html=1;rounded=0;" edge="1" parent="1">
          <mxGeometry width="50" height="50" relative="1" as="geometry">
            <mxPoint x="300" y="380" as="sourcePoint" />
            <mxPoint x="310" y="380" as="targetPoint" />
          </mxGeometry>
        </mxCell>
        <mxCell id="cw-4n0ESMkhcPqiXAh8_-44" value="&lt;font style=&quot;font-size: 20px;&quot;&gt;V2&lt;br&gt;&lt;/font&gt;" style="rounded=0;whiteSpace=wrap;html=1;" vertex="1" parent="1">
          <mxGeometry x="345" y="320" width="40" height="40" as="geometry" />
        </mxCell>
        <mxCell id="cw-4n0ESMkhcPqiXAh8_-45" value="" style="endArrow=none;html=1;rounded=0;exitX=1;exitY=0.5;exitDx=0;exitDy=0;entryX=0;entryY=0.5;entryDx=0;entryDy=0;" edge="1" parent="1">
          <mxGeometry width="50" height="50" relative="1" as="geometry">
            <mxPoint x="325" y="339.86" as="sourcePoint" />
            <mxPoint x="345" y="339.86" as="targetPoint" />
          </mxGeometry>
        </mxCell>
        <mxCell id="cw-4n0ESMkhcPqiXAh8_-46" value="B1" style="text;html=1;align=center;verticalAlign=middle;resizable=0;points=[];autosize=1;strokeColor=none;fillColor=none;" vertex="1" parent="1">
          <mxGeometry x="308" y="365" width="35" height="30" as="geometry" />
        </mxCell>
      </root>
    </mxGraphModel>
  </diagram>
</mxfile>
